<svg xmlns="http://www.w3.org/2000/svg" viewBox="0 0 150 150">
<!-- SVG created with Arrow, by QuiverAI (https://quiver.ai) -->
  <style type="text/css">.cls-0 {fill:#060708;}
.cls-1 {fill:#C8A828;}
.cls-2 {fill:#204722;}
.cls-3 {fill:#C8A828;stroke:#C8A828;stroke-width:0.2;stroke-miterlimit:10;}
.cls-4 {fill:none;stroke:#C8A828;stroke-width:2.2;stroke-miterlimit:10;}
.cls-5 {fill:none;stroke:#C8A828;stroke-width:2.1;stroke-miterlimit:10;}</style>
  <path class="cls-0" d="m75 1c-18.3 0-38.6 2.4-60.3 9.6v60.4c0 27.9 17.5 64.9 60.3 78.2 29.9-7.7 60.4-34.3 60.4-79.4v-59.2c-13.2-4.4-34.1-9.6-60.4-9.6z"/>
  <path class="cls-1" d="m75.1 3.7c-15.3 0-33.9 1.8-57.5 8.8v58.5c0 24.7 16.2 62.1 57.4 75.4 22.9-5.9 57.6-28.9 57.6-75.4v-58.5c-10.9-3.5-29.6-8.8-57.5-8.8z"/>
  <path class="cls-2" d="m19.6 62.2v8.8c0 26.3 16.5 60.1 55.4 73.1 21.8-5.6 55.4-27.6 55.4-73.1v-8.8h-110.8z"/>
  <path class="cls-0" d="m19.6 14.1v45.7h110.8v-45.7c-7.2-2.3-26.3-8.4-55.4-8.5-16.4 0-34.4 2.4-55.4 8.5z"/>
  <path class="cls-1" d="m41.2 18c-1.7-0.1-3.4-0.2-4.6-0.1-3.5 0.1-7.6 2.9-9.8 8.1-0.4 0.9-0.4 2.8-0.4 5.8s3.5 8.1 9.2 8.3c2.1 0.1 3.7-0.5 5.5-1.1 3.3-1.1 4.7-3.7 4.6-5.8l-4.8 1.6c-0.7 0.2-0.7 0.8-0.6 1.4v0.1c-3.1 0-7.7-1-8.3-6.8-0.4-3.8 2.1-9.2 5.7-9.5 1.8-0.1 3.5 0.8 3.8 2.2l-0.2-0.2c-1.3-0.6-2.6 2.3-2.4 3.7 0.1 0.6 0.8 0.6 1.3 0.3 1.3-0.7 3.2-0.9 4.2-1.5 1.3-0.8 1.5-1.7 1.5-3.4 0-1.9-2.5-2.9-4.7-3.1z"/>
  <path class="cls-1" d="m65.5 36.6 1-13c0.1-2.1-2.6-4.7-3.6-5.3-1.3-0.7-4.2-0.3-7.4 1.1-1.7 0.6-4.3 2.2-4.7 3.8-0.2 1.7 0.5 2.1 1.1 1.7l4.1-1.2c1.1-0.2 0.3-2 0.7-2.4 1.4-1.3 4.3 0.2 4.1 2.1v5.1l-0.2 0.9c-1.9-0.1-2.6-0.1-4.2 0.3-2.4 0.4-4.2 0.4-6 1.7-1.3 1-1.9 2.4-1.7 4.5 0.3 2.7 2.4 4.2 5.4 3.7l5.8-2c0.6 1.4 1.7 2.8 3.2 2.8 1.9 0.1 3.9-0.2 5.2-1 1-0.6-0.1-1.5-1-1.5-0.8-0.2-1.8-0.7-1.8-1.3zm-5.6-0.7c0 0.2-2.4 1.1-3.3 1.1-1.5 0-2-0.7-2-2.9 0-2 2-2.8 5.8-2.7l-0.5 4.5z"/>
  <path class="cls-1" d="m95.6 18.4c-2.2-0.6-4 0.1-6 0.9-2.2 0.8-6 2.4-6 5 0 1.2 0.9 1 1.5 0.6l3.8-1.2c1.1-0.2 0.4-1.7 1.6-2.3 1.1-0.7 4 1.2 3.3 3.3l-4 8.8-4.9-3.6c-0.7-0.4-1.3 0.2-2.2 0.6l-4.9 2.8c-0.2-1.4-0.2-2.2-0.2-3.6v-6.1c0-1.9 1.1-0.6 1.9-1.5 0.9-1-0.3-1.8-1.3-1.8-2.1-0.1-4.2-0.2-6.2 2.2-0.4 0.5-0.4 0.9-0.4 1.4l0.1 11 0.4 3c0.4 0.9 1.5 0.8 2.5 0.4l7.4-4.3 5.4 5c1.8 1.2 4 0.5 5.3-1.1 1.3-1.5 2.9-4.5 5.1-8.4 2-3.7 3.6-8.9-2.2-11.1z"/>
  <path class="cls-1" d="m119.8 38.1c-0.9-0.1-1.9-0.8-1.9-1.4l1-13.2c0.2-1.5-2.4-5-4.5-5.2-0.9 0-2.8-0.1-4.3 0.4-2 0.7-7 2.1-7.1 5.2 0 1.8 1.2 1 1.6 0.8l3.3-1c1.7-0.2 0.6-2 1-2.3 1.3-1.3 4-0.3 4.5 1.7l-0.1 5.5-0.2 0.8c-2-0.1-2.6 0-4.2 0.3-2.4 0.4-4.3 0.4-6.3 1.9-1.3 1-2 2.3-1.8 4.5 0.3 2.7 2.2 4 5.2 3.8l6.4-2c0.6 1.4 1.5 2.6 3.1 2.6 1.9 0.1 3.9-0.4 5-1 1.1-0.5 0.2-1.4-0.7-1.4zm-7.4-1.8c-0.9 0.3-1.8 0.7-3.4 0.7-1.5-0.1-2.5-0.7-2.5-2.7s1.5-3 6.2-2.7l-0.3 4.7z"/>
  <path class="cls-3" d="m91.1 43.8-0.7 0.1c-0.6-0.5-1.3-0.8-2-0.8-1.7 0-2.6 1.3-2.6 2.8 0 1.4 0.9 2.8 2.6 2.8 0.7 0 1.4-0.1 2.2-0.7v-1.7h-1.7v-1.1h3.1v3.4c-0.7 0.8-1.8 1.5-3.3 1.5-2.7 0-4.1-1.8-4.1-4.2 0-2.3 1.6-4 4.1-4 0.9 0 2 0.2 2.9 1.1l-0.5 0.8z"/>
  <path class="cls-3" d="m94.5 42.8c0 1-1.4 1-1.4 0 0-0.9 1.4-1.1 1.4 0zm-1.1 1.5v5.7h1.1v-5.7h-1.1z"/>
  <path class="cls-3" d="m97.2 44.3 0.2 0.7c0.4-0.7 1.1-0.9 1.6-0.9 0.6 0 1.1 0.2 1.5 0.5l-0.6 1c-0.3-0.2-0.5-0.4-1-0.4-0.8 0-1.5 0.5-1.5 1.5v3.2h-1.2v-5.6h1z"/>
  <path class="cls-3" d="m106.5 46.9c0 1.4-0.9 2.5-2.5 2.5-1.5 0-2.6-1.1-2.6-2.5 0-1.5 0.9-2.6 2.6-2.6 1.5 0 2.5 1.1 2.5 2.6zm-4.4 0c0 0.8 0.6 1.8 1.5 1.8 1 0 1.8-0.8 1.8-1.8 0-0.8-0.7-1.7-1.6-1.7-1.1 0-1.7 0.9-1.7 1.7z"/>
  <path class="cls-3" d="m112.4 50v-3.1c0-1-0.5-1.5-1.5-1.5-0.9 0-1.5 0.7-1.9 1.5v3.1h-1.2v-5.7h1.1l0.1 0.9c0.6-0.6 1.2-0.9 1.9-0.9 1.3 0 2.5 0.9 2.5 2.6v3.1h-1z"/>
  <path class="cls-3" d="m119.4 44.3h1.1v5.7h-1.1v-1c-0.3 0.7-1.3 1.1-2 1.1-1.6 0-2.8-1-2.8-2.9 0-1.8 1.2-2.9 2.8-2.8 0.7 0 1.7 0.3 2 1v-1.1zm-3.6 2.6c0 1.1 0.8 1.8 1.8 1.8 2.3 0 2.3-3.5 0-3.5-1 0-1.8 0.7-1.8 1.7z"/>
  <path class="cls-1" d="m54.2 80.6c-1.1-2.5-2.4-11.7 1.5-13.2-0.8 3.3-0.3 7.4 0.3 9.1 2-2.5 6-5.7 14-6.4v19.8l-2.2-2.3h-15.8c-0.1-2.1 1.1-6.5 2.2-7z"/>
  <path class="cls-1" d="m94.9 80.6c1.1-2.5 2-11.7-2-13.2 0.7 3.3 0.4 6.6-0.4 9.1-2-2.5-5.8-5.8-14.6-6.4v19.8l2.5-2.4h15.8c0.2-2.8-0.8-5.9-1.3-6.9z"/>
  <path class="cls-1" d="m71.8 66.1h4.7v27.5l-2.3 1.2-2.4-1.3v-27.4z"/>
  <path class="cls-1" d="m71.9 95.6 2.3 1.3 2.3-1.3 2.1 14.2-4.4 2.6-4.6-2.5 2.3-14.3z"/>
  <path class="cls-1" d="m52.1 95.5v5l15.8 8.5 1-5.5-12.7-5.6-1.5-2.4h-2.6z"/>
  <path class="cls-1" d="m51.2 102.2-6.2 5.7v8.3l8.6-12.8-2.4-1.2z"/>
  <path class="cls-1" d="m55.2 104.2-9.2 13.8 9 6.1 7.6-15.7-7.4-4.2z"/>
  <path class="cls-1" d="m64.2 109.1-7.7 15.8 5.4 6.1 6.6-6.1 1.5-6.4h3.2v-4.6l-9-4.8z"/>
  <path class="cls-1" d="m84 109.1-9 4.9v4.5h2.9l1.7 6.4 6.9 6.1 5.3-6.2-7.8-15.7z"/>
  <path class="cls-1" d="m93.3 124.1 8.8-6.1-8.8-13.8-7.7 4.2 7.9 15.7h-0.2z"/>
  <path class="cls-1" d="m97 102.2-2.3 1.2 8.4 12.8v-8.3l-6.1-5.7z"/>
  <path class="cls-1" d="m96.2 95.5v5l-16.1 8.5-0.7-5.4 13-5.8 1.2-2.3h2.6z"/>
  <path class="cls-1" d="m49.8 89h2.4l4.7 4.6h-7.1v-4.6z"/>
  <path class="cls-1" d="m54.9 89.1h4.9l4.8 4.5h-5l-4.7-4.5z"/>
  <path class="cls-1" d="m62.6 89h3.9l3.6 3.6v1h-2.9l-4.6-4.6z"/>
  <path class="cls-1" d="m81.4 89.1-3.4 3.4v1.1h2.6l5-4.5h-4.2z"/>
  <path class="cls-1" d="m88.5 89.1-4.9 4.5h5l4.9-4.5h-5z"/>
  <path class="cls-1" d="m96 89-4.6 4.6h6.8v-4.6h-2.2z"/>
  <line class="cls-4" x1="18.2" x2="131.6" y1="61" y2="61"/>
  <ellipse class="cls-2" cx="103.7" cy="46.9" rx="1.5" ry="1.6"/>
  <path class="cls-3" d="m106.5 46.9c0 1.4-0.9 2.5-2.5 2.5-1.5 0-2.5-1.1-2.5-2.5 0-1.5 1-2.6 2.3-2.6 1.8 0 2.7 1.1 2.7 2.6zm-4.4 0c0 1 0.6 1.8 1.7 1.8 0.9 0 1.7-0.8 1.7-1.8 0-0.8-0.8-1.7-1.7-1.7s-1.7 0.7-1.7 1.7z"/>
  <path class="cls-5" d="m102.1 46.9"/>
</svg>