<svg xmlns="http://www.w3.org/2000/svg" viewBox="0 0 128 128">
<!-- SVG created with Arrow, by QuiverAI (https://quiver.ai) -->
  <style type="text/css">.cls-0 {fill:#184b1f;}
.cls-1 {fill:#CCA22C;}</style>
  <path class="cls-0" d="m107.4 70.2 0.1-12.8h4l-0.1-11.8h-5.5v-1h1.7c0.1-6.7-2-12-3-14.3 0.8-2.4 2.5-8.4 1.3-15.4-1.1-6.7-3.9-9.1-7.2-11.8 1.2 4.2 2 10.4 0 17.9-3.1-3.7-7.3-6.7-11.6-8.4-3.8-1.6-8-2.9-16.7-3.3l-0.1 3.3h-0.8v-11.2h-11.1v11.2h-0.8v-3.3c-7.2 0.1-11.5 1.2-15.9 3-4.3 1.7-9 4.5-12.4 8.6-1.9-6.5-1.7-13 0-17.9-2.9 2.1-6.9 5-7.7 13.3-0.5 6.1 0.8 11.7 1.6 14-1.1 2.6-2.8 7.1-2.8 14.3h1.6v1.1h-5.3v11.6h3.8l0.1 12.5-12.5 11.2v19.8l2.8-3.9c0.6-0.8 0.8-0.4 1.2-0.1 0.5 0.3-0.3 1-0.3 1l-2.6 4 18.2 12.8 2.7-5.1c0.4-0.7 0.7-0.4 1-0.2 0.6 0.4 0 1.2 0 1.2l-2.3 4.1 11.1 12.4 14.1-11.7 3.1-11.7 13.6-0.1 3.4 11.8 13.8 11.7 11-12.3 0.2-0.1-2.2-4.5c-0.2-0.6 0.2-0.8 0.5-0.9s0.5 0.3 0.5 0.3l2.4 5.1 18.4-12.7-2.6-4.1c-0.6-0.8-0.3-0.9 0.2-1.2 0.3-0.1 0.6 0.3 0.6 0.3l3.1 3.9v-19.8l-12.6-10.8z"/>
  <path class="cls-1" d="m56.4 10.7c-10.1 0.1-20.2 3.7-27.7 13.2-2.2-6-2.5-12.3-1.8-17.2-1.8 1.9-3.6 5.7-4 10.7-0.3 4.8 0.7 10.1 1.7 12.9-1.1 2.6-2.8 6.7-2.9 12.9h30.1l4.6 5v-37.5z"/>
  <path class="cls-1" d="m71.7 10.7c4.3 0.1 9.5 0.6 14.9 2.8 3.3 1.3 8.8 4.4 12.7 9.8l0.3 0.5c1.6-4.9 2.4-11.1 1.2-17.1 1.8 1.6 3.6 4.7 4.2 10.7 0.3 5.9-1.1 11.3-1.8 12.9 1.1 2.6 2.9 6.7 3 12.9h-29.8l-4.8 5v-37.5z"/>
  <path class="cls-1" d="m60 2.7h8.1v53.3l-4.1 2.3-4.3-2.2z"/>
  <path class="cls-1" d="m18.2 47.1h4l8.9 8.9h-12.9z"/>
  <path class="cls-1" d="m27 46.8h9.6l9.1 9.2h-9.5z"/>
  <path class="cls-1" d="m41.9 46.8h7.8l6.6 7.2v2h-5.1z"/>
  <path class="cls-1" d="m86.2 46.8h-7.8l-6.8 7.1v2.1h5.3z"/>
  <path class="cls-1" d="m100.9 46.8h-9.5l-9.2 9.2h9.6z"/>
  <path class="cls-1" d="m110 47.1h-4.2l-8.7 8.9h12.9z"/>
  <path class="cls-1" d="m21.9 59.8h4.7l2.6 4.3 24.8 10.2-1.6 9.4-30.5-14.9z"/>
  <path class="cls-1" d="m20.2 71.9 3.9 1.9-14.8 23.2v-15.3z"/>
  <path class="cls-1" d="m27.4 75.6 14.4 7-15 30-15.9-11.2z"/>
  <path class="cls-1" d="m45.2 84.2 17.1 9.1v8.8h-6.3l-3.3 12.5-12.7 10.5-9.4-10.6z"/>
  <path class="cls-1" d="m59.7 59.9 4.4 2.5 4.3-2.4 4.3 25.3-8.7 4.6-8.5-4.5z"/>
  <path class="cls-1" d="m106.1 59.8h-4.9l-2.3 4.2-24.7 10.2 1.7 9.5 30.1-14.9z"/>
  <path class="cls-1" d="m107.8 72 10.8 9.7v15.4l-14.9-23.2z"/>
  <path class="cls-1" d="m100.5 75.6-14.4 6.9 14.6 30.1 16.3-11.1z"/>
  <path class="cls-1" d="m82.9 84.2-17.5 9.3 0.1 8.6h6.3l3.5 12.3 12.5 10.6 9.5-10.5z"/>
</svg>